<svg width="136" height="41" viewBox="0 0 136 41" fill="none" xmlns="http://www.w3.org/2000/svg">
<path d="M19.0885 4.31361C17.8209 6.68923 13.5707 14.66 9.65608 22.0682C5.70417 29.4451 1.93867 36.6033 1.23031 37.9473L0 40.3855L5.8533 40.2917L11.7066 40.1979L13.7944 35.9781L15.8822 31.7582L26.8804 31.6645L37.8787 31.602L40.041 35.9781L42.2034 40.3542H48.094C51.3748 40.3542 54.0219 40.2917 54.0219 40.1979C54.0219 40.0416 52.2696 36.7283 42.017 17.5358C39.7801 13.3159 36.7602 7.65823 35.3062 4.93877L32.6965 0.0312484H27.0296H21.3627L19.0885 4.31361ZM30.7205 17.0669C32.51 20.6616 34.0759 23.8187 34.1505 24.0062C34.2996 24.3188 32.7337 24.4126 27.0296 24.4126C23.0031 24.4126 19.7223 24.3501 19.7223 24.2563C19.7223 24.1625 21.139 21.2555 22.854 17.7859C24.6062 14.285 26.2094 11.0028 26.4331 10.5027C26.955 9.31491 26.694 8.93981 30.7205 17.0669Z" fill="white"/>
<path d="M58.8685 20.1927V40.3542H64.4609H70.0532V20.1927V0.0312413H64.4609H58.8685V20.1927Z" fill="white"/>
<path d="M84.4813 3.40712C85.6744 5.25135 90.9312 13.3472 96.1507 21.3805L105.658 35.9781L108.379 35.9156L111.101 35.8218L117.625 26.6006C121.242 21.5368 124.299 17.2545 124.522 17.0982C124.709 16.9106 124.858 21.2555 124.858 28.5699V40.3542H130.04C133.396 40.3542 135.334 40.2292 135.521 40.0104C135.632 39.8228 135.632 30.758 135.483 19.8489L135.185 -1.68532e-05L130.562 0.0937575L125.902 0.187532L117.364 12.2219C112.667 18.8486 108.715 24.2875 108.566 24.3188C108.379 24.3813 104.315 18.9111 99.506 12.2219L90.782 0.0312413H86.5319H82.319L84.4813 3.40712Z" fill="white"/>
<path d="M81.2379 29.9453V40.3542H86.6438H92.0497V38.1661V35.9468L87.3149 28.6949C84.7052 24.6939 82.2818 21.0054 81.909 20.5053C81.2379 19.5988 81.2379 19.7864 81.2379 29.9453Z" fill="white"/>
</svg>
